<?xml version="1.0" encoding="UTF-8"?>
<svg id="Layer_1" data-name="Layer 1" xmlns="http://www.w3.org/2000/svg" viewBox="0 0 1080 1080">
  <defs>
    <style>
      .cls-1 {
        fill: #fff;
      }
    </style>
  </defs>
  <path class="cls-1" d="M917.91,440.54c25.23-33.81,40.98-69.72,44.69-105.89,11.88-121.51-103.25-237.54-312.48-237.54-178.88,0-385.79,108.57-480.82,245.53-33.11,47.71-52.75,98.85-52.75,150.07s23.74,106.91,85.88,106.91c8.22,0,15.81-.73,23.05-1.82,93.33-14.05,107.2-111.47,90.23-111.47-9.44,3.54-17.08,3.89-23.34,2.13-24.33-6.85-25.6-49.26-10.24-95,5.17-15.4,12.11-31.14,20.8-46,5.27-8.18,13.26-19.23,23.8-31.6,42.45-49.83,128.04-121.9,261.27-121.9,157.14,0,204.65,87.7,190.02,167.2-8.03,46.64-32.43,82.97-64.25,112.1-32.57,29.82-72.92,52.07-112.23,69.39-13.66,6.02-27.13,11.44-40.1,16.43-14.72,5.66-28.75,10.77-41.53,15.45-5.56,2.04-10.92,4-15.96,5.9l8.77-31.83,59.74-216.7c10.96-36.55-19.18-71.26-71.26-71.26-4.13,0-7.75.58-11.61.89-26.03,2.11-46.37,10.45-61.49,19.22-10.04,6.38-19.18,12.78-27.41,19.18l9.14,8.22c5.48,6.38,7.3,14.6,4.56,24.67l-60.12,221.08-53.78,197.76-24.86,91.44-2.86,10.5c-10.04,36.55,21,71.26,72.18,71.26,16.55,0,31.53-2.87,44.72-7.02,79,40.69,165.7,65.04,251.54,65.04,226.6,0,285.97-119.69,278.67-210.15-7.32-92.28-112.55-179.34-218.43-181.07.28-.22.59-.53.86-.76,93.52-35.96,170.17-89.54,215.57-150.37ZM736.27,741.67c10.04,87.72-57.58,145.28-157.16,145.28-49.52,0-100.08-12.56-147.18-34.83l10.82-40.26,47.49-176.62c4.56.92,10.96.92,17.36,0,9.53-.76,18.87-2.02,28.27-3.15,34.16-4.11,67.44-10.36,99.25-18.91,56.98,29.01,94.48,66.43,101.13,128.5Z"/>
</svg>