<?xml version="1.0" encoding="UTF-8"?>
<svg id="Layer_1" data-name="Layer 1" xmlns="http://www.w3.org/2000/svg" viewBox="0 0 2895.32 1080">
  <path d="M2648.06,623.77c0,16.83,15.36,30.71,36.57,30.71,14.62,0,51.19-8.77,51.19-42.4s-34.38-67.29-109.71-67.29-137.49,53.39-137.49,103.84c0,77.52,89.22,110.44,89.22,137.49,0,19.76-16.09,32.92-32.91,32.92-10.99,0-25.61-13.16-25.61-25.61,0-8.04,10.23-12.43,10.23-27.06s-10.23-33.64-34.36-33.64c-22.45,0-43.49,14.18-45.18,48.23-23.8,18.71-52.6,32.96-77.7,32.96-13.9,0-78.99-13.16-63.64-89.22,11.71,2.93,27.8,4.39,42.42,1.46,49-8.04,102.39-40.94,108.25-92.88,8.04-49.74-41.7-81.91-84.12-81.91-84.84,0-163.81,57.77-185.03,176.97-1.85,10.33-2.13,20.93-.92,31.46-25.95,27.97-66.74,54.12-100.75,54.12-13.9,0-78.99-13.16-63.64-89.22,11.71,2.93,27.8,4.39,42.42,1.46,49-8.04,102.39-40.94,108.25-92.88,8.04-49.74-41.7-81.91-84.12-81.91-84.84,0-163.81,57.77-185.03,176.97-2.38,13.27-2.14,27,.52,40.44-21.87,20.71-45.27,34.16-61.98,34.16-11.71,0-13.9-7.32-13.16-13.9l47.54-167.48v-.72l60.69-214.29c8.06-26.32-15.36-51.19-51.19-51.19-22.66,0-40.22,7.3-52.65,13.88-8.04,5.12-14.62,9.51-19.74,13.9l6.58,5.86c2.93,3.65,5.12,10.23,2.93,18.27l-40.22,141.89c-8.06-.74-16.83-1.47-27.8-1.47-84.84,0-177.71,57.77-198.93,176.99-2.7,14.86-3.89,30.41-3.21,45.55-21.43,19.89-44.13,32.7-60.45,32.7-11.71,0-13.9-7.32-13.16-13.9l47.54-167.48v-.72l60.69-214.29c8.06-26.32-15.36-51.19-51.19-51.19-22.66,0-40.22,7.3-52.65,13.88-8.04,5.12-14.62,9.51-19.74,13.9l6.58,5.86c2.93,3.65,5.12,10.23,2.93,18.27l-40.22,141.89c-8.06-.74-16.83-1.47-27.8-1.47-84.84,0-177.71,57.77-198.93,176.99-2.38,13.11-3.58,26.77-3.37,40.21-21.3,21.42-47.81,40.98-68.34,40.98-11.69,0-13.16-7.32-12.43-13.9l52.65-185.77c8.06-29.26-16.08-57.04-57.77-57.04-25.59,0-44.61,7.3-58.51,15.36-8.04,5.13-15.36,10.23-21.94,15.36l7.32,6.58c5.12,5.13,5.84,12.43,3.65,20.48l-41.68,147.74c-25.59,29.97-56.32,56.3-76.06,56.3-15.36,0-13.9-16.81-11.71-25.59l51.21-179.19c8.04-29.26-16.09-57.04-57.79-57.04-25.59,0-44.61,7.3-58.49,15.36-8.06,5.13-15.36,10.23-21.94,15.36l7.3,6.58c5.12,5.13,5.86,12.43,3.67,20.48l-40.22,142.61c-.77,2.85-1.38,5.67-1.92,8.47-.02-3.6-.18-7.17-.46-10.67-5.86-73.87-90.09-143.55-174.84-144.94.22-.18.47-.42.69-.61,74.86-28.79,136.21-71.67,172.55-120.36,20.19-27.06,32.8-55.81,35.77-84.76,9.51-97.26-82.64-190.14-250.12-190.14-143.18,0-308.8,86.91-384.88,196.53-26.5,38.19-42.22,79.12-42.22,120.12s19.01,85.57,68.74,85.57c6.58,0,12.65-.58,18.45-1.46,74.71-11.25,85.81-89.22,72.23-89.22-7.56,2.83-13.67,3.11-18.68,1.7-19.48-5.48-20.49-39.43-8.19-76.04,4.14-12.33,9.7-24.93,16.65-36.82,4.22-6.55,10.61-15.39,19.05-25.3,33.98-39.89,102.49-97.57,209.14-97.57,125.78,0,163.81,70.2,152.11,133.84-6.43,37.33-25.96,66.41-51.43,89.73-26.07,23.87-58.37,41.68-89.84,55.54-10.93,4.82-21.71,9.16-32.1,13.15-11.78,4.53-23.02,8.62-33.25,12.37-4.45,1.63-8.74,3.2-12.78,4.72l7.02-25.47,47.82-173.45c8.77-29.26-15.36-57.04-57.04-57.04-3.31,0-6.2.46-9.29.71-20.84,1.69-37.12,8.37-49.22,15.38-8.04,5.11-15.36,10.23-21.94,15.36l7.32,6.58c4.39,5.11,5.84,11.69,3.65,19.74l-48.12,176.96-43.05,158.3-19.9,73.19-2.29,8.41c-8.04,29.26,16.81,57.04,57.77,57.04,13.25,0,25.24-2.3,35.8-5.62,63.24,32.57,132.63,52.06,201.35,52.06,152.59,0,210.44-67.8,221.48-132.44,1.66,49.11,36.79,85.62,73.43,85.62,52.67,0,88.51-25.59,121.41-54.11,2.19,22.66,11.71,48.26,46.07,53.39,61.34,10.04,127.25-28.08,169.29-64.62,9.8,35.74,34.34,63.14,80.87,63.14,31.45,0,52.67-19.01,76.06-43.14,0,32.17,32.91,46.07,52.67,46.07,51.59,0,103.52-25.12,141.97-59.68,10.91,32.56,35.21,56.75,78.91,56.75,31.45,0,52.67-19.01,76.06-43.14,0,32.17,32.91,46.07,52.67,46.07,54.88,0,110.18-28.42,149.2-66.41,20.84,37.45,63.17,66.41,123.62,66.41s117.55-30.97,156.66-73.16c19.36,40.67,63.09,73.16,127.13,73.16,46.2,0,93.98-19.95,131.26-49.65,15.44,31.06,51.15,55.49,97.68,55.49,81.91,0,156.49-47.52,156.49-109.69,0-73.15-101.65-103.12-101.65-146.28,0-26.32,24.13-40.23,39.49-40.23,21.22,0,22.68,11.71,22.68,15.36,0,8.06-24.87,12.44-24.87,29.26ZM2386.95,599.64c5.12,0,7.32,5.84,6.58,18.29-2.19,38.75-44.61,67.29-76.06,73.13,23.41-73.13,57.77-91.42,69.48-91.42ZM2103.16,599.64c5.12,0,7.32,5.84,6.58,18.29-2.19,38.75-44.61,67.29-76.06,73.13,23.41-73.13,57.77-91.42,69.48-91.42ZM529.75,838.79c-39.64,0-80.11-10.06-117.81-27.88l8.66-32.23,38.02-141.37c3.65.74,8.78.74,13.9,0,7.63-.61,15.11-1.62,22.63-2.52,27.34-3.29,53.99-8.29,79.45-15.14,45.61,23.22,75.63,53.17,80.95,102.86,8.04,70.22-46.09,116.29-125.8,116.29ZM1409.77,641.32l-33.63,121.41c-16.83,14.62-25.61,24.87-39.51,19.74-15.36-5.12-24.13-25.59-13.16-75.32,17.55-78.26,56.32-100.19,77.52-103.86,18.29-2.91,16.83,12.44,8.78,38.03ZM1759.39,641.32l-33.63,121.41c-16.83,14.62-25.61,24.87-39.51,19.74-15.36-5.12-24.13-25.59-13.16-75.32,17.55-78.26,56.32-100.19,77.52-103.86,18.29-2.91,16.83,12.44,8.78,38.03Z"/>
</svg>